<?xml version="1.0" standalone="no"?>
<!DOCTYPE svg PUBLIC "-//W3C//DTD SVG 20010904//EN"
 "http://www.w3.org/TR/2001/REC-SVG-20010904/DTD/svg10.dtd">
<svg version="1.0" xmlns="http://www.w3.org/2000/svg"
 width="96.000000pt" height="96.000000pt" viewBox="0 0 96.000000 96.000000"
 preserveAspectRatio="xMidYMid meet">
<metadata>
Created by potrace 1.11, written by Peter Selinger 2001-2013
</metadata>
<g transform="translate(0.000000,96.000000) scale(0.100000,-0.100000)"
fill="#000000" stroke="none">
<path d="M304 866 c-9 -10 2 -27 53 -79 l66 -67 -167 0 -167 0 -25 -27 -25
-27 3 -274 3 -274 24 -19 c22 -18 44 -19 411 -19 l387 0 27 25 26 24 0 271 0
271 -26 24 c-26 24 -31 25 -193 25 l-165 0 68 69 c60 60 66 70 51 79 -15 8
-31 -3 -91 -64 -40 -41 -78 -74 -84 -74 -6 0 -45 34 -85 75 -41 41 -76 75 -77
75 -2 -1 -8 -7 -14 -14z m536 -466 l0 -240 -360 0 -360 0 0 240 0 240 360 0
360 0 0 -240z"/>
<path d="M360 399 l0 -161 23 14 c12 8 73 43 135 78 61 35 112 68 112 72 0 5
-8 12 -17 15 -10 4 -63 33 -118 66 -55 32 -108 63 -117 68 -17 9 -18 -1 -18
-152z"/>
</g>
</svg>
